<svg xmlns="http://www.w3.org/2000/svg" viewBox="0 0 256 256">
  <defs>
    <style>
      @media (prefers-color-scheme: dark) {
        svg { filter: invert(1); }
      }
    </style>
  </defs>
  
  <!-- Cloud shape -->
  <path d="M 60 120 C 50 120 45 130 45 140 C 45 150 50 160 60 160 L 200 160 C 215 160 225 150 225 135 C 225 125 218 115 205 115 C 200 105 190 100 178 100 C 170 85 155 75 140 75 C 120 75 105 85 100 100 C 90 98 80 100 70 105 C 65 105 60 110 60 120 Z" 
        fill="none" stroke="currentColor" stroke-width="8" stroke-linecap="round" stroke-linejoin="round"/>
  
  <!-- Circuit board - left connector -->
  <circle cx="100" cy="135" r="5" fill="currentColor"/>
  <line x1="100" y1="135" x2="100" y2="185" stroke="currentColor" stroke-width="5" stroke-linecap="round"/>
  <circle cx="100" cy="195" r="6" fill="currentColor"/>
  
  <!-- Circuit board - right connector -->
  <circle cx="165" cy="135" r="5" fill="currentColor"/>
  <line x1="165" y1="135" x2="165" y2="185" stroke="currentColor" stroke-width="5" stroke-linecap="round"/>
  <circle cx="165" cy="195" r="6" fill="currentColor"/>
</svg>